<svg width="24.000000" height="24.000000" viewBox="0 0 24 24" fill="none" xmlns="http://www.w3.org/2000/svg" xmlns:xlink="http://www.w3.org/1999/xlink">
	<desc>
			Created with Pixso.
	</desc>
	<defs/>
	<rect id="check" width="24.000000" height="24.000000" fill="#FFFFFF" fill-opacity="0"/>
	<path id="Vector" d="M11.9644 4.85958C13.377 4.85958 14.7573 5.27836 15.9316 6.06297C17.106 6.84758 18.021 7.96277 18.5615 9.26752C19.1021 10.5723 19.2432 12.008 18.9678 13.3931C18.6924 14.7782 18.0122 16.0505 17.0137 17.0492C16.0151 18.0478 14.7427 18.7278 13.3574 19.0034C11.9727 19.2789 10.5366 19.1375 9.23193 18.597C7.92725 18.0566 6.81201 17.1414 6.02734 15.9671C5.24268 14.7929 4.82422 13.4123 4.82422 12.0001C4.83154 10.1085 5.58594 8.29658 6.92334 6.95906C8.26123 5.62154 10.0728 4.86689 11.9644 4.85958ZM11.9644 3.2728C10.2397 3.27986 8.55615 3.79769 7.12549 4.76093C5.69531 5.72418 4.58203 7.08965 3.92725 8.68495C3.27197 10.2803 3.10449 12.0339 3.44482 13.7245C3.78564 15.415 4.61963 16.9667 5.8418 18.1837C7.06348 19.4007 8.61865 20.2283 10.3105 20.5622C12.0024 20.896 13.7554 20.7211 15.3481 20.0595C16.9409 19.398 18.3018 18.2794 19.2593 16.845C20.2163 15.4105 20.7275 13.7246 20.7275 12.0001C20.7275 10.851 20.5005 9.7132 20.0596 8.65202C19.6191 7.59085 18.9731 6.62717 18.1587 5.8163C17.3447 5.00543 16.3784 4.36333 15.3154 3.92685C14.2524 3.49037 13.1138 3.2681 11.9644 3.2728Z" fill="#4EA8DE" fill-opacity="1.000000" fill-rule="nonzero"/>
</svg>
