<svg width="126.000000" height="48.000000" viewBox="0 0 126 48" fill="none" xmlns="http://www.w3.org/2000/svg" xmlns:xlink="http://www.w3.org/1999/xlink">
	<desc>
			Created with Pixso.
	</desc>
	<defs>
		<clipPath id="clip7_315">
			<rect id="rocket" width="22.000000" height="36.000000" transform="translate(0.000000 10.000000)" fill="white" fill-opacity="0"/>
		</clipPath>
	</defs>
	<path id="todo" d="M90.9327 35.416C90.0245 37.6328 87.9249 39.2832 84.8487 39.2832C80.1905 39.2832 76.2745 35.6504 76.2745 28.0918C76.2745 20.1914 80.4737 16.9004 84.7999 16.9004C88.0323 16.9004 90.0831 18.7754 90.9327 20.9922L91.0499 20.9922L91.0499 9.9082L98.8819 9.9082L98.8819 39L91.0987 39L91.0987 35.416L90.9327 35.416ZM124.57 28.1504C124.57 34.8496 120.361 39.4004 113.261 39.4004C106.162 39.4004 101.953 34.8496 101.953 28.1504C101.953 21.4414 106.162 16.9004 113.261 16.9004C120.361 16.9004 124.57 21.4414 124.57 28.1504ZM109.97 28.0918C109.97 31.5098 111.22 33.5996 113.32 33.5996C115.302 33.5996 116.552 31.5098 116.552 28.0918C116.552 24.6641 115.302 22.584 113.32 22.584C111.22 22.584 109.97 24.6641 109.97 28.0918ZM84.3409 28.0918C84.3409 31.334 85.5909 33.2578 87.7491 33.2578C89.9073 33.2578 91.2159 31.2754 91.2159 28.0918C91.2159 24.8496 89.9073 22.916 87.7491 22.916C85.5909 22.916 84.3409 24.8496 84.3409 28.0918Z" fill="#5E60CE" fill-opacity="1.000000" fill-rule="evenodd"/>
	<path id="todo" d="M45.25 17.1836L49 17.1836L49 22.8672L45.25 22.8672L45.25 31.9785C45.25 32.8965 45.709 33.3457 46.7246 33.3457C47.1934 33.3457 47.9648 33.1895 48.2578 33.1211L49.4004 38.6289C48.6875 38.8438 47.3691 39.2148 45.5918 39.3125C40.1816 39.6152 37.3496 37.291 37.4082 32.7207L37.4082 22.8672L34.625 22.8672L34.625 17.1836L37.4082 17.1836L37.4082 11.959L45.25 11.959L45.25 17.1836ZM73.7745 28.1504C73.7745 34.8496 69.5655 39.4004 62.4659 39.4004C55.3663 39.4004 51.1573 34.8496 51.1573 28.1504C51.1573 21.4414 55.3663 16.9004 62.4659 16.9004C69.5655 16.9004 73.7745 21.4414 73.7745 28.1504ZM59.1749 28.0918C59.1749 31.5098 60.4249 33.5996 62.5245 33.5996C64.5069 33.5996 65.7569 31.5098 65.7569 28.0918C65.7569 24.6641 64.5069 22.584 62.5245 22.584C60.4249 22.584 59.1749 24.6641 59.1749 28.0918Z" fill="#4EA8DE" fill-opacity="1.000000" fill-rule="evenodd"/>
	<rect id="rocket" width="22.000000" height="36.000000" transform="translate(0.000000 10.000000)" fill="#FFFFFF" fill-opacity="0"/>
	<g clip-path="url(#clip7_315)">
		<path id="Vector" d="M11.0215 12.933C14.147 16.9011 15.8154 21.7944 15.7554 26.8155L15.7554 28.0141L16.7866 28.6416C18.1187 29.4482 19.1128 30.6993 19.5864 32.1669C19.1704 31.8605 18.7349 31.5803 18.2832 31.3279L15.5332 29.7838L15.0391 32.9001C14.9961 33.1755 14.939 33.4485 14.8672 33.718L7.16162 33.718C7.04688 33.3654 6.95361 33.0129 6.86768 32.6463L6.24463 29.8261L3.70947 31.2362C3.28613 31.473 2.87695 31.7344 2.48486 32.0188C2.96826 30.5682 3.94092 29.3242 5.24219 28.4935L6.22314 27.866L6.22314 26.752C6.24072 21.7513 7.92969 16.8952 11.0288 12.933L11.0215 12.933ZM11.0288 10C10.8677 10.0004 10.7129 10.058 10.5918 10.1622L10.5273 10.2186C6.39746 14.7656 4.10449 20.6454 4.08203 26.745C2.32959 27.8643 1.03223 29.5544 0.416992 31.5197C-0.198242 33.485 -0.0922852 35.6007 0.716309 37.4971C1.56787 35.6455 2.99121 34.1058 4.78369 33.0975C4.96338 33.8642 5.20312 34.6161 5.5 35.3466C5.5376 35.4871 5.62109 35.6115 5.7373 35.7006C5.854 35.7898 5.99707 35.8388 6.14453 35.8402L16.0845 35.8402C16.2852 35.8402 16.4858 35.6498 16.5859 35.3537C16.8755 34.6592 17.0776 33.9322 17.1875 33.1892C18.9834 34.1932 20.4082 35.7342 21.2554 37.5887C22.1123 35.7017 22.2451 33.5727 21.6284 31.5966C21.0122 29.6206 19.6885 27.9319 17.9038 26.8437C17.9746 20.7082 15.6934 14.7718 11.5156 10.2186C11.4531 10.1501 11.3774 10.0952 11.292 10.0576C11.207 10.0199 11.1147 10.0003 11.0215 10L11.0288 10Z" fill="#4EA8DE" fill-opacity="1.000000" fill-rule="nonzero"/>
		<path id="Vector" d="M11.0215 26.1598C10.4717 26.1598 9.93359 25.9995 9.47607 25.699C9.01855 25.3986 8.66162 24.9715 8.44971 24.4716C8.23828 23.9716 8.18213 23.4213 8.2876 22.8898C8.39355 22.3584 8.65674 21.8697 9.04443 21.4853C9.43164 21.1009 9.92627 20.838 10.4648 20.7298C11.0039 20.6216 11.5635 20.6729 12.0728 20.8773C12.582 21.0816 13.0186 21.4298 13.3276 21.8781C13.6362 22.3263 13.8032 22.8545 13.8076 23.396C13.8159 23.7469 13.7544 24.0961 13.6255 24.4235C13.4971 24.751 13.3042 25.0503 13.0581 25.3043C12.812 25.5583 12.5176 25.7622 12.1914 25.9041C11.8652 26.0461 11.5142 26.1234 11.1577 26.1316C11.1128 26.1387 11.0664 26.1387 11.0215 26.1316L11.0215 26.1598Z" fill="#4EA8DE" fill-opacity="1.000000" fill-rule="nonzero"/>
		<path id="Path 3417" d="M14.8955 37.5958C14.7163 37.5901 14.5381 37.6198 14.3706 37.683C14.2031 37.7462 14.0503 37.8416 13.9209 37.9638C13.7915 38.086 13.688 38.2323 13.6172 38.3943C13.5459 38.5563 13.5083 38.7307 13.5063 38.9072L13.5063 43.067C13.5063 43.4297 13.6528 43.7776 13.9131 44.0341C14.1738 44.2907 14.5273 44.4348 14.8955 44.4348C15.2642 44.4348 15.6177 44.2907 15.8779 44.0341C16.1387 43.7776 16.2852 43.4297 16.2852 43.067L16.2852 38.9636C16.2905 38.7878 16.2607 38.6125 16.1973 38.4482C16.1333 38.2839 16.0371 38.1337 15.9136 38.0063C15.7905 37.8791 15.6426 37.7772 15.479 37.7067C15.3149 37.6362 15.1387 37.5985 14.96 37.5958L14.8955 37.5958Z" fill="#5E60CE" fill-opacity="1.000000" fill-rule="nonzero"/>
		<path id="Path 3418" d="M7.16113 37.5958C6.979 37.5863 6.79688 37.613 6.625 37.6743C6.45361 37.7356 6.29639 37.8302 6.1626 37.9525C6.0293 38.0749 5.92188 38.2225 5.84717 38.3865C5.77295 38.5505 5.73242 38.7275 5.729 38.9072L5.729 43.067C5.729 43.4297 5.87549 43.7776 6.13574 44.0342C6.39648 44.2907 6.75 44.4348 7.11816 44.4348C7.48682 44.4348 7.84033 44.2907 8.10059 44.0342C8.36133 43.7776 8.50781 43.4297 8.50781 43.067L8.50781 38.9636C8.51318 38.7878 8.4834 38.6125 8.41992 38.4482C8.35596 38.2839 8.25977 38.1337 8.13623 38.0063C8.01318 37.8791 7.86523 37.7772 7.70166 37.7067C7.5376 37.6362 7.36133 37.5985 7.18262 37.5958L7.16113 37.5958Z" fill="#5E60CE" fill-opacity="1.000000" fill-rule="nonzero"/>
		<path id="Path 3419" d="M10.9209 37.5958C10.7422 37.592 10.5645 37.623 10.3979 37.6869C10.2314 37.7507 10.0796 37.8463 9.95068 37.9681C9.82129 38.0899 9.71826 38.2355 9.646 38.3966C9.57422 38.5577 9.53564 38.7312 9.53174 38.9072L9.53174 44.6393C9.53174 45.002 9.67822 45.3499 9.93848 45.6064C10.1992 45.8629 10.5527 46.007 10.9209 46.007C11.2896 46.007 11.6431 45.8629 11.9033 45.6064C12.1641 45.3499 12.3105 45.002 12.3105 44.6393L12.3105 38.9988C12.3159 38.823 12.2861 38.6478 12.2227 38.4835C12.1587 38.3191 12.0625 38.1689 11.939 38.0416C11.8159 37.9143 11.668 37.8124 11.5044 37.7419C11.3403 37.6714 11.1641 37.6337 10.9854 37.631L10.9209 37.5958Z" fill="#5E60CE" fill-opacity="1.000000" fill-rule="nonzero"/>
	</g>
</svg>
