<svg width="24.000000" height="24.000000" viewBox="0 0 24 24" fill="none" xmlns="http://www.w3.org/2000/svg" xmlns:xlink="http://www.w3.org/1999/xlink">
	<desc>
			Created with Pixso.
	</desc>
	<defs>
		<clipPath id="clip30_137">
			<rect id="trash" rx="4.000000" width="24.000000" height="24.000000" fill="white" fill-opacity="0"/>
		</clipPath>
	</defs>
	<rect id="trash" rx="4.000000" width="24.000000" height="24.000000" fill="#FFFFFF" fill-opacity="0"/>
	<g clip-path="url(#clip30_137)">
		<path id="Vector" d="M12.8716 9.98547L14.2021 9.98547L14.2021 15.5073L12.8716 15.5073L12.8716 9.98547Z" fill="#808080" fill-opacity="1.000000" fill-rule="evenodd"/>
		<path id="Vector" d="M10.1318 9.98547L11.4624 9.98547L11.4624 15.5073L10.1318 15.5073L10.1318 9.98547Z" fill="#808080" fill-opacity="1.000000" fill-rule="evenodd"/>
		<path id="Vector" d="M18 7.16712C17.9976 7.03061 17.9534 6.89846 17.8738 6.78975C17.7944 6.68104 17.6838 6.6014 17.5579 6.56232C17.5015 6.53782 17.4417 6.52252 17.3806 6.51696L13.9692 6.51696C13.8401 6.07791 13.5789 5.69355 13.2239 5.42047C12.8689 5.14739 12.4392 5 11.9976 5C11.5562 5 11.1262 5.14739 10.7712 5.42047C10.4163 5.69355 10.155 6.07791 10.0259 6.51696L6.6145 6.51696C6.55835 6.51814 6.50269 6.52729 6.44897 6.54418L6.43433 6.54418C6.30127 6.58701 6.18604 6.67547 6.10742 6.79515C6.02881 6.91483 5.99146 7.05866 6.00171 7.20319C6.01172 7.34771 6.0686 7.48441 6.16309 7.59099C6.25757 7.69757 6.38379 7.76774 6.52148 7.79006L7.20508 17.5334C7.21533 17.9127 7.36255 18.2741 7.61743 18.5458C7.87231 18.8175 8.21606 18.9797 8.58057 19L15.4119 19C15.7766 18.9804 16.1211 18.8186 16.3767 18.5468C16.6321 18.2751 16.7798 17.9132 16.7903 17.5334L17.4707 7.79914C17.6174 7.77797 17.752 7.70232 17.8491 7.58615C17.9465 7.46999 18 7.32116 18 7.16712ZM11.9976 6.21457C12.1223 6.21458 12.2454 6.24146 12.3596 6.29351C12.4736 6.34556 12.5762 6.42164 12.6606 6.51696L11.3345 6.51696C11.4187 6.42135 11.5212 6.34507 11.6353 6.293C11.7495 6.24092 11.8728 6.21421 11.9976 6.21457ZM15.4119 17.7904L8.58057 17.7904C8.50195 17.7904 8.37988 17.6573 8.36523 17.4457L7.69067 7.81123L16.3044 7.81123L15.6299 17.4457C15.6152 17.6573 15.4932 17.7904 15.4119 17.7904Z" fill="#808080" fill-opacity="1.000000" fill-rule="nonzero"/>
	</g>
</svg>
